<svg width="32" height="32" viewBox="0 0 32 32" fill="none" xmlns="http://www.w3.org/2000/svg">
<path d="M26.1253 5.33211C22.4566 3.50784 18.2544 2.64102 13.8741 3.02895C9.75627 3.39363 5.88773 4.86027 2.7168 7.05776" stroke="#112969" stroke-width="2" stroke-linecap="round" stroke-linejoin="round"/>
<path d="M3.75747 2.30762L2.7168 7.05781L7.54275 8.08892" stroke="#112969" stroke-width="2" stroke-linecap="round" stroke-linejoin="round"/>
<path d="M14.7568 19.5128L15.6407 22.3797" stroke="#112969" stroke-width="2" stroke-linecap="round" stroke-linejoin="round"/>
<path d="M30.239 23.919L29.2226 17.0261C28.9855 15.4184 27.5114 14.2918 25.8979 14.4851L17.6957 15.4675L15.6333 8.77823C15.3079 7.72269 14.1884 7.13082 13.1328 7.45625C12.0773 7.78168 11.4854 8.90118 11.8108 9.95672L13.9906 17.0266L14.7571 19.5128L12.8459 20.1021C11.7903 20.4275 11.1984 21.547 11.5239 22.6026L12.3769 25.3694C12.7783 26.6714 13.6109 27.798 14.7377 28.5639L18.2926 30.9802" stroke="#112969" stroke-width="2" stroke-linecap="round" stroke-linejoin="round"/>
</svg>
