<svg width="20" height="20" viewBox="0 0 20 20" fill="none" xmlns="http://www.w3.org/2000/svg">
<path d="M20.0001 10C20.0001 11.7552 19.5382 13.4795 18.6606 14.9995C17.7831 16.5196 16.521 17.782 15.001 18.6597C13.4811 19.5375 11.7569 19.9997 10.0017 20C8.24652 20.0003 6.52217 19.5386 5.00195 18.6613L10.0001 10H20.0001Z" fill="#112969"/>
<path d="M20.0001 9.99999C20.0001 8.2448 19.5382 6.52053 18.6606 5.00045C17.7831 3.48037 16.521 2.21802 15.001 1.34027C13.4811 0.462516 11.7569 0.000275923 10.0017 1.23491e-07C8.24652 -0.000275676 6.52217 0.461422 5.00195 1.3387L10.0001 9.99999H20.0001Z" fill="#BBE6AC"/>
<path d="M5 18.6598C3.47996 17.7822 2.21768 16.52 1.34001 15C0.462334 13.48 0.000183907 11.7558 5.48766e-08 10.0006C-0.000183797 8.24539 0.461604 6.52107 1.33896 5.0009C2.21631 3.48072 3.47833 2.21824 4.99818 1.34033L9.99999 9.99953L5 18.6598Z" fill="#C5F0FD"/>
</svg>
