<svg width="126" height="76" viewBox="0 0 126 76" fill="none" xmlns="http://www.w3.org/2000/svg">
<path d="M0.0395224 29.662C-0.228533 31.2971 0.879615 32.8398 2.51464 33.1079L29.1589 37.4761C30.794 37.7441 32.3367 36.636 32.6048 35.001C32.8728 33.3659 31.7647 31.8232 30.1297 31.5551L6.44584 27.6723L10.3287 3.98845C10.5968 2.35343 9.48861 0.810673 7.85358 0.542617C6.21855 0.274561 4.6758 1.38271 4.40774 3.01774L0.0395224 29.662ZM120.326 73.3842C121.077 74.8612 122.883 75.4498 124.36 74.6989C125.837 73.948 126.425 72.142 125.674 70.6651L120.326 73.3842ZM4.75017 32.584C19.0969 22.2788 47.8613 7.29378 76.2961 19.7516L78.7039 14.2559C47.1387 0.426616 15.9031 17.1855 1.24983 27.7108L4.75017 32.584ZM76.2961 19.7516C105.049 32.349 112.939 58.8543 120.326 73.3842L125.674 70.6651C118.868 57.2768 109.951 27.9458 78.7039 14.2559L76.2961 19.7516Z" fill="#F5C3B4"/>
</svg>
