<svg xmlns="http://www.w3.org/2000/svg" fill="none" viewBox="0 0 160 160" height="160" width="160">
<circle fill="#F03E2F" r="80" cy="80" cx="80"></circle>
<path fill="white" d="M55.6288 50.2074C55.6288 60.9945 62.4092 67.4129 75.9838 70.7974L90.3681 74.074C103.215 76.973 111.039 84.1734 111.039 95.9045C111.139 101.015 109.447 106.004 106.248 110.036C106.248 98.3316 100.086 92.0076 85.221 88.2051L71.0975 85.0499C59.7876 82.5149 51.0582 76.5955 51.0582 63.8531C50.9987 58.9324 52.6066 54.1319 55.6288 50.2074Z"></path>
<path fill="#F9B1AB" d="M97.4099 93.0323C103.545 96.8888 106.235 102.282 106.235 110.022C101.157 116.413 92.2354 120 81.7491 120C64.0981 120 51.7451 111.465 49 96.6325H65.951C68.1334 103.442 73.9118 106.597 81.6256 106.597C91.0413 106.597 97.3002 101.662 97.4236 93.0054"></path>
<path fill="#F9B1AB" d="M64.4402 66.1993C61.6386 64.5635 59.34 62.2132 57.7886 59.3975C56.2371 56.5819 55.4906 53.4061 55.6284 50.2073C60.5284 43.8699 69.0519 40 79.4422 40C97.4227 40 107.827 49.3309 110.393 62.4643H94.0873C92.2892 57.2864 87.7874 53.2547 79.5795 53.2547C70.8088 53.2547 64.8245 58.2707 64.4814 66.1993"></path>
</svg>
