<svg xmlns="http://www.w3.org/2000/svg" fill="none" viewBox="0 0 160 160" height="160" width="160">
<path fill="#4353FF" d="M160 80C160 124 124 160 80 160C36 160 0 124 0 80C0 36 36 0 80 0C124 0 160 36 160 80Z"></path>
<path fill="white" d="M104.4 69.7196C104.4 69.7196 97.4803 91.3996 96.9603 93.2396C96.7603 91.3996 91.7203 52.4396 91.7203 52.4396C79.9203 52.4396 73.6403 60.7996 70.3203 69.7196C70.3203 69.7196 61.9203 91.4796 61.2403 93.3196C61.2003 91.5996 59.9603 69.9596 59.9603 69.9596C59.2403 59.0796 49.3203 52.4796 41.2803 52.4796L50.9603 111.52C63.3203 111.48 69.9603 103.12 73.4403 94.2396C73.4403 94.2396 80.8403 75.0396 81.1603 74.1596C81.2403 74.9996 86.4803 111.52 86.4803 111.52C98.8403 111.52 105.52 103.68 109.12 95.1196L126.4 52.4396C114.16 52.4396 107.72 60.7996 104.4 69.7196Z"></path>
</svg>
