<svg width="32" height="32" viewBox="0 0 32 32" fill="none" xmlns="http://www.w3.org/2000/svg">
<path d="M16.0002 30.6654C24.1003 30.6654 30.6668 24.0989 30.6668 15.9987C30.6668 7.89852 24.1003 1.33203 16.0002 1.33203C7.89999 1.33203 1.3335 7.89852 1.3335 15.9987C1.3335 24.0989 7.89999 30.6654 16.0002 30.6654Z" fill="#EC4989"/>
<path fill-rule="evenodd" clip-rule="evenodd" d="M16 32C7.17756 32 0 24.8224 0 16C0 7.17755 7.17756 0 16 0C24.8224 0 32 7.17756 32 16C32 24.8224 24.8224 32 16 32ZM29.4936 18.1902C29.0261 18.0426 25.2635 16.9204 20.9809 17.606C22.7684 22.518 23.4959 26.5186 23.6359 27.35C26.7019 25.2769 28.8845 21.9928 29.4936 18.1902ZM21.3384 28.6012C21.1351 27.4021 20.3416 23.2234 18.4229 18.2374C18.3929 18.2477 18.3629 18.2574 18.3328 18.2679C10.6244 20.9539 7.85735 26.2996 7.61141 26.8023C9.92861 28.6093 12.8407 29.6873 16 29.6873C17.8932 29.6873 19.6975 29.3001 21.3384 28.6012ZM5.84685 25.1587C6.15643 24.6287 9.90717 18.4185 16.9555 16.1402C17.1336 16.0826 17.3132 16.0285 17.494 15.9776C17.151 15.2012 16.7773 14.424 16.386 13.6583C9.56113 15.7008 2.93843 15.6155 2.34049 15.6032C2.33631 15.742 2.33353 15.8811 2.33353 16.0208C2.33353 19.5309 3.66413 22.7358 5.84685 25.1587ZM2.62221 13.2218C3.23347 13.2299 8.86399 13.2543 15.2567 11.5567C12.9922 7.53131 10.55 4.147 10.1897 3.6529C6.36634 5.4563 3.50841 8.98096 2.62221 13.2218ZM12.7974 2.73428C13.1752 3.24009 15.6573 6.62023 17.8968 10.7348C22.7564 8.91335 24.8136 6.14821 25.0594 5.79811C22.646 3.65689 19.4725 2.35437 16 2.35437C14.8973 2.35437 13.8251 2.48656 12.7974 2.73428ZM26.5787 7.37847C26.2906 7.76821 24.0005 10.704 18.9475 12.767C19.2655 13.418 19.5704 14.0801 19.8542 14.7465C19.9548 14.9827 20.0527 15.2178 20.1486 15.4518C24.6959 14.88 29.2143 15.7964 29.6648 15.8917C29.6348 12.6661 28.4821 9.70403 26.5787 7.37847Z" fill="#C51E60"/>
</svg>
